<svg width="25" height="24" viewBox="0 0 25 24" fill="none" xmlns="http://www.w3.org/2000/svg">
<path d="M18.4922 8.08301C18.4922 6.49171 17.86 4.96559 16.7348 3.84037C15.6096 2.71515 14.0835 2.08301 12.4922 2.08301C10.9009 2.08301 9.37477 2.71515 8.24955 3.84037C7.12433 4.96559 6.49219 6.49171 6.49219 8.08301C6.49219 15.083 3.49219 17.083 3.49219 17.083H21.4922C21.4922 17.083 18.4922 15.083 18.4922 8.08301Z" stroke="black" stroke-width="2" stroke-linecap="round" stroke-linejoin="round"/>
<path d="M14.2222 21.083C14.0464 21.3861 13.794 21.6377 13.4904 21.8125C13.1868 21.9874 12.8426 22.0795 12.4922 22.0795C12.1418 22.0795 11.7976 21.9874 11.4939 21.8125C11.1903 21.6377 10.938 21.3861 10.7622 21.083" stroke="black" stroke-width="2" stroke-linecap="round" stroke-linejoin="round"/>
</svg>
