<svg width="24" height="24" viewBox="0 0 24 24" fill="none" xmlns="http://www.w3.org/2000/svg">
<path d="M2.4375 5V6.75H14.6875V10.25V12V14.625H9.63062C9.15017 14.0918 8.4618 13.75 7.6875 13.75C6.9132 13.75 6.22483 14.0918 5.74438 14.625H5.0625V13.75L6.8125 12H3.3125V16.375H5.0625C5.0625 17.8249 6.23763 19 7.6875 19C9.13737 19 10.3125 17.8249 10.3125 16.375H15.5625C15.5625 17.8249 16.7376 19 18.1875 19C19.6374 19 20.8125 17.8249 20.8125 16.375H21.6875H22.5625V12L20.1785 7.23364C20.0306 6.93702 19.7291 6.75 19.3975 6.75H16.4375V5H2.4375ZM3.3125 8.5V10.25H9.4375V8.5H3.3125ZM16.4375 8.5H18.8557L19.7307 10.25H16.4375V8.5ZM16.4375 12H20.6057L20.8125 12.4136V14.625H20.1306C19.6502 14.0918 18.9618 13.75 18.1875 13.75C17.5119 13.75 16.9027 14.0127 16.4375 14.4319V12ZM7.6875 15.2812C8.29038 15.2812 8.78125 15.7721 8.78125 16.375C8.78125 16.9779 8.29038 17.4688 7.6875 17.4688C7.08462 17.4688 6.59375 16.9779 6.59375 16.375C6.59375 15.7721 7.08462 15.2812 7.6875 15.2812ZM18.1875 15.2812C18.7904 15.2812 19.2812 15.7721 19.2812 16.375C19.2812 16.9779 18.7904 17.4688 18.1875 17.4688C17.5846 17.4688 17.0938 16.9779 17.0938 16.375C17.0938 15.7721 17.5846 15.2812 18.1875 15.2812Z" fill="black"/>
</svg>
