<svg width="25" height="24" viewBox="0 0 25 24" fill="none" xmlns="http://www.w3.org/2000/svg">
<g clip-path="url(#clip0_7_436)">
<path d="M14.12 14.203C13.8454 14.4978 13.5141 14.7342 13.1462 14.8981C12.7782 15.0621 12.3809 15.1503 11.9781 15.1574C11.5753 15.1645 11.1752 15.0904 10.8016 14.9395C10.4281 14.7886 10.0887 14.564 9.80385 14.2792C9.51897 13.9943 9.29439 13.6549 9.14351 13.2814C8.99262 12.9078 8.91853 12.5077 8.92563 12.1049C8.93274 11.7021 9.02091 11.3049 9.18488 10.9369C9.34884 10.5689 9.58525 10.2377 9.88 9.96301M1 1.08301L23 23.083M17.94 18.023C16.2306 19.326 14.1491 20.0479 12 20.083C5 20.083 1 12.083 1 12.083C2.24389 9.7649 3.96914 7.73962 6.06 6.14301L17.94 18.023ZM9.9 4.32301C10.5883 4.16189 11.2931 4.08135 12 4.08301C19 4.08301 23 12.083 23 12.083C22.393 13.2186 21.6691 14.2877 20.84 15.273L9.9 4.32301Z" stroke="black" stroke-width="2" stroke-linecap="round" stroke-linejoin="round"/>
</g>
<defs>
<clipPath id="clip0_7_436">
<rect width="24.6486" height="24" fill="white"/>
</clipPath>
</defs>
</svg>
