<svg width="25" height="24" viewBox="0 0 25 24" fill="none" xmlns="http://www.w3.org/2000/svg">
<path d="M20.9104 4.69288C20.3997 4.18188 19.7932 3.77653 19.1258 3.49996C18.4583 3.2234 17.7429 3.08105 17.0204 3.08105C16.2979 3.08105 15.5825 3.2234 14.9151 3.49996C14.2476 3.77653 13.6412 4.18188 13.1304 4.69288L12.0704 5.75288L11.0104 4.69288C9.97874 3.66119 8.57946 3.08159 7.12043 3.08159C5.6614 3.08159 4.26212 3.66119 3.23043 4.69288C2.19874 5.72457 1.61914 7.12385 1.61914 8.58288C1.61914 10.0419 2.19874 11.4412 3.23043 12.4729L4.29043 13.5329L12.0704 21.3129L19.8504 13.5329L20.9104 12.4729C21.4214 11.9621 21.8268 11.3557 22.1033 10.6882C22.3799 10.0208 22.5223 9.30537 22.5223 8.58288C22.5223 7.86039 22.3799 7.14498 22.1033 6.47752C21.8268 5.81007 21.4214 5.20364 20.9104 4.69288V4.69288Z" stroke="black" stroke-width="2" stroke-linecap="round" stroke-linejoin="round"/>
</svg>
