<svg width="24" height="24" viewBox="0 0 24 24" fill="none" xmlns="http://www.w3.org/2000/svg">
<path d="M1 1.00302L23 23.003" stroke="black" stroke-width="2" stroke-linecap="round" stroke-linejoin="round"/>
<path d="M15 9.34302V4.00302C15.0007 3.25905 14.725 2.54134 14.2264 1.98922C13.7277 1.4371 13.0417 1.08996 12.3015 1.0152C11.5613 0.940427 10.8197 1.14336 10.2207 1.58461C9.62172 2.02586 9.20805 2.67393 9.06 3.40302M9 9.00302V12.003C9.00052 12.596 9.17675 13.1755 9.50643 13.6684C9.83611 14.1612 10.3045 14.5453 10.8523 14.7722C11.4002 14.999 12.0029 15.0584 12.5845 14.9429C13.1661 14.8273 13.7005 14.542 14.12 14.123L9 9.00302Z" stroke="black" stroke-width="2" stroke-linecap="round" stroke-linejoin="round"/>
<path d="M19 10.003V12.003C18.9996 12.4155 18.9628 12.8271 18.89 13.233M17 16.953C16.0238 17.9494 14.7721 18.6315 13.4056 18.9116C12.0391 19.1918 10.62 19.0572 9.3305 18.5253C8.04096 17.9934 6.93976 17.0883 6.16817 15.9262C5.39658 14.7641 4.9898 13.3979 5 12.003V10.003L17 16.953Z" stroke="black" stroke-width="2" stroke-linecap="round" stroke-linejoin="round"/>
<path d="M12 19.003V23.003" stroke="black" stroke-width="2" stroke-linecap="round" stroke-linejoin="round"/>
<path d="M8 23.003H16" stroke="black" stroke-width="2" stroke-linecap="round" stroke-linejoin="round"/>
</svg>
