<svg width="25" height="24" viewBox="0 0 25 24" fill="none" xmlns="http://www.w3.org/2000/svg">
<g clip-path="url(#clip0_7_429)">
<path d="M16.7383 9.08109C17.9809 9.08109 18.9883 8.07373 18.9883 6.83109C18.9883 5.58844 17.9809 4.58109 16.7383 4.58109C15.4957 4.58109 14.4883 5.58844 14.4883 6.83109C14.4883 8.07373 15.4957 9.08109 16.7383 9.08109Z" stroke="black" stroke-width="2" stroke-linecap="round" stroke-linejoin="round"/>
<path d="M7.73827 14.3311C8.98091 14.3311 9.98827 13.3237 9.98827 12.0811C9.98827 10.8384 8.98091 9.83105 7.73827 9.83105C6.49563 9.83105 5.48827 10.8384 5.48827 12.0811C5.48827 13.3237 6.49563 14.3311 7.73827 14.3311Z" stroke="black" stroke-width="2" stroke-linecap="round" stroke-linejoin="round"/>
<path d="M16.7383 19.5811C17.9809 19.5811 18.9883 18.5737 18.9883 17.3311C18.9883 16.0884 17.9809 15.0811 16.7383 15.0811C15.4957 15.0811 14.4883 16.0884 14.4883 17.3311C14.4883 18.5737 15.4957 19.5811 16.7383 19.5811Z" stroke="black" stroke-width="2" stroke-linecap="round" stroke-linejoin="round"/>
<path d="M9.68083 13.2135L14.8033 16.1985" stroke="black" stroke-width="2" stroke-linecap="round" stroke-linejoin="round"/>
<path d="M14.7958 7.96352L9.68083 10.9485" stroke="black" stroke-width="2" stroke-linecap="round" stroke-linejoin="round"/>
</g>
<defs>
<clipPath id="clip0_7_429">
<rect width="18" height="18" fill="white" transform="translate(3.23828 3.08105)"/>
</clipPath>
</defs>
</svg>
