<svg width="24" height="24" viewBox="0 0 24 24" fill="none" xmlns="http://www.w3.org/2000/svg">
<path d="M11.8097 2.59021C11.8693 2.40539 12.1307 2.40539 12.1903 2.59021L14.1888 8.7868C14.2155 8.86957 14.2926 8.92561 14.3796 8.92542L20.8904 8.91119C21.0846 8.91076 21.1654 9.15945 21.0081 9.27325L15.7323 13.0887C15.6618 13.1397 15.6324 13.2303 15.6594 13.313L17.6849 19.5008C17.7453 19.6854 17.5338 19.839 17.3769 19.7246L12.1179 15.8861C12.0477 15.8348 11.9523 15.8348 11.8821 15.8861L6.62306 19.7246C6.4662 19.839 6.25466 19.6854 6.31507 19.5008L8.34057 13.313C8.36763 13.2303 8.33817 13.1397 8.2677 13.0887L2.99194 9.27325C2.83459 9.15945 2.91539 8.91076 3.10958 8.91119L9.62044 8.92542C9.70741 8.92561 9.78453 8.86957 9.81122 8.7868L11.8097 2.59021Z" stroke="black" stroke-width="2"/>
</svg>
